HIERARCHY
ROOT Pelvis
{
	OFFSET 0.000000 0.000000 0.000000
	CHANNELS 6 Xposition Yposition Zposition Xrotation Yrotation Zrotation
	JOINT LeftUpLeg_virtual
	{
		OFFSET 0.000000 0.000000 0.000000
		CHANNELS 3 Xrotation Yrotation Zrotation
		JOINT LeftUpLeg
		{
			OFFSET 18.735201 -5.666702 -4.541200
			CHANNELS 3 Xrotation Yrotation Zrotation
			JOINT LeftLeg
			{
				OFFSET -0.021200 -31.938179 0.493100
				CHANNELS 3 Xrotation Yrotation Zrotation
				JOINT LeftFoot
				{
					OFFSET 0.021200 -31.938179 -4.336299
					CHANNELS 3 Xrotation Yrotation Zrotation
					JOINT LeftToeBase
					{
						OFFSET 0.943001 -26.722000 15.023500
						CHANNELS 3 Xrotation Yrotation Zrotation
						End Site
						{
							OFFSET 0 0 0
						}
					}
				}
			}
		}
	}
	JOINT RightUpLeg_virtual
	{
		OFFSET 0.000000 0.000000 0.000000
		CHANNELS 3 Xrotation Yrotation Zrotation
		JOINT RightUpLeg
		{
			OFFSET -18.735201 -5.666702 -4.541200
			CHANNELS 3 Xrotation Yrotation Zrotation
			JOINT RightLeg
			{
				OFFSET 0.018946 -31.938133 0.493100
				CHANNELS 3 Xrotation Yrotation Zrotation
				JOINT RightFoot
				{
					OFFSET -0.018946 -31.938126 -4.336299
					CHANNELS 3 Xrotation Yrotation Zrotation
					JOINT RightToeBase
					{
						OFFSET -0.943001 -26.722004 15.023500
						CHANNELS 3 Xrotation Yrotation Zrotation
						End Site
						{
							OFFSET 0 0 0
						}
					}
				}
			}
		}
	}
	JOINT Hips_virtual
	{
		OFFSET 0.000000 0.000000 0.000000
		CHANNELS 3 Xrotation Yrotation Zrotation
		JOINT Hips
		{
			OFFSET -0.000000 -0.000000 -0.000000
			CHANNELS 3 Xrotation Yrotation Zrotation
			JOINT Spine
			{
				OFFSET 0.000000 10.199997 -0.299500
				CHANNELS 3 Xrotation Yrotation Zrotation
				JOINT Spine1
				{
					OFFSET 0.000000 11.900002 -1.516600
					CHANNELS 3 Xrotation Yrotation Zrotation
					JOINT Spine2
					{
						OFFSET 0.000000 13.600006 -2.842500
						CHANNELS 3 Xrotation Yrotation Zrotation
						JOINT Neck_virtual
						{
							OFFSET 0.000000 0.000000 0.000000
							CHANNELS 3 Xrotation Yrotation Zrotation
							JOINT Neck
							{
								OFFSET 0.000000 9.624100 -2.890100
								CHANNELS 3 Xrotation Yrotation Zrotation
								JOINT Head
								{
									OFFSET 0.000000 14.068802 -1.351900
									CHANNELS 3 Xrotation Yrotation Zrotation
									End Site
									{
										OFFSET 0 0 0
									}
								}
							}
						}
						JOINT LeftShoulder_virtual
						{
							OFFSET 0.000000 0.000000 0.000000
							CHANNELS 3 Xrotation Yrotation Zrotation
							JOINT LeftShoulder
							{
								OFFSET 15.263000 10.923401 -0.547700
								CHANNELS 3 Xrotation Yrotation Zrotation
								JOINT LeftArm
								{
									OFFSET 25.438599 -2.830597 -13.032500
									CHANNELS 3 Xrotation Yrotation Zrotation
									JOINT LeftForeArm
									{
										OFFSET 29.960503 0.000000 0.000000
										CHANNELS 3 Xrotation Yrotation Zrotation
										JOINT LeftHand
										{
											OFFSET 27.849251 0.000000 0.000000
											CHANNELS 3 Xrotation Yrotation Zrotation
											End Site
											{
												OFFSET 0 0 0
											}
										}
									}
								}
							}
						}
						JOINT RightShoulder_virtual
						{
							OFFSET 0.000000 0.000000 0.000000
							CHANNELS 3 Xrotation Yrotation Zrotation
							JOINT RightShoulder
							{
								OFFSET -15.263000 10.923401 -0.547700
								CHANNELS 3 Xrotation Yrotation Zrotation
								JOINT RightArm
								{
									OFFSET -25.438599 -2.830597 -13.032500
									CHANNELS 3 Xrotation Yrotation Zrotation
									JOINT RightForeArm
									{
										OFFSET -29.960503 0.000000 0.000000
										CHANNELS 3 Xrotation Yrotation Zrotation
										JOINT RightHand
										{
											OFFSET -27.849251 0.000000 0.000000
											CHANNELS 3 Xrotation Yrotation Zrotation
											End Site
											{
												OFFSET 0 0 0
											}
										}
									}
								}
							}
						}
					}
				}
			}
		}
	}
}
MOTION
Frames: 13
Frame Time: 0.03333333
-3.067582 79.839333 79.316612 0.000000 0.000000 0.000000 31.812654 13.674437 -8.046718 -2.839080 8.350078 4.798535 18.180908 21.445008 1.776019 -20.843477 1.095056 -26.999560 0.000000 0.000000 0.000000 31.812654 13.674437 -8.046718 -80.679642 -11.379910 -1.293737 72.885557 -32.100308 -1.863503 -14.561166 -0.264973 -0.331484 0.000000 0.000000 0.000000 31.812654 13.674437 -8.046718 -0.000001 0.000002 0.000000 4.720605 0.170323 3.031527 9.441397 0.085013 4.172061 0.000000 0.000000 0.000000 9.441400 0.085011 4.172064 -1.429936 0.120146 -0.121767 0.000000 0.000000 0.000000 9.441400 0.085011 4.172064 3.345518 -20.374552 5.851157 -45.404144 -21.632025 -43.071733 105.129555 -62.566234 117.849805 0.000000 0.000000 0.000000 9.441400 0.085011 4.172064 1.512602 10.066764 -3.702964 -39.856859 5.966723 40.669764 110.736662 51.476766 -131.206103 0.000000 0.000000 0.000000 
-3.099530 79.691437 79.486679 0.000000 0.000000 0.000000 32.020412 13.675284 -8.092674 -3.202854 8.324022 4.969043 18.719001 21.427116 1.752336 -20.886616 1.059202 -27.269851 0.000000 0.000000 0.000000 32.020412 13.675284 -8.092674 -81.076429 -11.503466 -1.340970 73.344675 -32.099089 -1.869158 -14.664590 -0.255817 -0.407033 0.000000 0.000000 0.000000 32.020412 13.675284 -8.092674 -0.000001 0.000001 0.000000 4.639608 0.171029 3.034681 9.279513 0.081829 4.174583 0.000000 0.000000 0.000000 9.279510 0.081827 4.174586 -1.441255 0.118868 -0.120947 0.000000 0.000000 0.000000 9.279510 0.081827 4.174586 3.403883 -20.465914 6.046224 -45.550754 -21.701376 -42.949237 104.319357 -62.881098 117.063186 0.000000 0.000000 0.000000 9.279510 0.081827 4.174586 1.519938 10.005074 -3.875171 -40.127266 6.220000 40.746743 110.235251 51.780494 -130.620879 0.000000 0.000000 0.000000 
-3.127992 79.545105 79.653748 0.000000 0.000000 0.000000 32.234542 13.680968 -8.142265 -3.572237 8.296054 5.138677 19.248040 21.409727 1.728848 -20.918262 1.021933 -27.539044 0.000000 0.000000 0.000000 32.234542 13.680968 -8.142265 -81.466753 -11.627900 -1.398752 73.793138 -32.089315 -1.873806 -14.778339 -0.250580 -0.468891 0.000000 0.000000 0.000000 32.234542 13.680968 -8.142265 0.000001 0.000000 0.000000 4.557702 0.172174 3.040172 9.115792 0.078894 4.180703 0.000000 0.000000 0.000000 9.115795 0.078890 4.180705 -1.452684 0.118728 -0.120512 0.000000 0.000000 0.000000 9.115795 0.078890 4.180705 3.462213 -20.556776 6.238189 -45.726149 -21.783020 -42.867278 103.432464 -63.200403 116.209112 0.000000 0.000000 0.000000 9.115795 0.078890 4.180705 1.527258 9.940856 -4.054028 -40.408383 6.474588 40.823631 109.704060 52.094987 -130.008170 0.000000 0.000000 0.000000 
-3.153533 79.398872 79.820297 0.000000 0.000000 0.000000 32.450953 13.685880 -8.192090 -3.939263 8.266581 5.305203 19.766523 21.392904 1.705667 -20.939769 0.983285 -27.806272 0.000000 0.000000 0.000000 32.450953 13.685880 -8.192090 -81.853540 -11.750584 -1.466841 74.239225 -32.056147 -1.876512 -14.896825 -0.248272 -0.520249 0.000000 0.000000 0.000000 32.450953 13.685880 -8.192090 0.000000 0.000000 0.000001 4.475358 0.173108 3.045849 8.951158 0.075002 4.186376 0.000000 0.000000 0.000000 8.951169 0.075007 4.186377 -1.464159 0.119707 -0.120396 0.000000 0.000000 0.000000 8.951169 0.075007 4.186377 3.520938 -20.647262 6.429785 -45.923064 -21.869212 -42.821670 102.479277 -63.518335 115.301243 0.000000 0.000000 0.000000 8.951169 0.075007 4.186377 1.534749 9.876781 -4.238347 -40.697030 6.729575 40.910425 109.140747 52.419024 -129.364152 0.000000 0.000000 0.000000 
-3.177384 79.251282 79.988327 0.000000 0.000000 0.000000 32.666059 13.683627 -8.239746 -4.296894 8.236056 5.467915 20.273716 21.376387 1.682847 -20.954336 0.943983 -28.070858 0.000000 0.000000 0.000000 32.666059 13.683627 -8.239746 -82.239098 -11.870031 -1.541677 74.687873 -31.990953 -1.876726 -15.013615 -0.247446 -0.565910 0.000000 0.000000 0.000000 32.666059 13.683627 -8.239746 -0.000001 0.000001 -0.000001 4.392896 0.173207 3.049557 8.786291 0.069152 4.187627 0.000000 0.000000 0.000000 8.786292 0.069157 4.187629 -1.475593 0.121793 -0.120590 0.000000 0.000000 0.000000 8.786292 0.069157 4.187629 3.580654 -20.737419 6.622317 -46.132652 -21.954677 -42.797774 101.473819 -63.830713 114.352912 0.000000 0.000000 0.000000 8.786292 0.069157 4.187629 1.543036 9.816508 -4.426532 -40.990206 6.984697 41.013281 108.542300 52.751942 -128.683578 0.000000 0.000000 0.000000 
-3.201045 79.100662 80.159470 0.000000 0.000000 0.000000 32.877604 13.668890 -8.284575 -4.641517 8.204862 5.627814 20.772072 21.359470 1.660179 -20.967760 0.905411 -28.332250 0.000000 0.000000 0.000000 32.877604 13.668890 -8.284575 -82.625229 -11.986728 -1.617933 75.142135 -31.892561 -1.874561 -15.124839 -0.246949 -0.609710 0.000000 0.000000 0.000000 32.877604 13.668890 -8.284575 -0.000001 -0.000001 0.000001 4.310534 0.172007 3.049780 8.621644 0.060788 4.181863 0.000000 0.000000 0.000000 8.621637 0.060787 4.181864 -1.486339 0.124943 -0.121229 0.000000 0.000000 0.000000 8.621637 0.060787 4.181864 3.640697 -20.827291 6.814460 -46.346098 -22.038796 -42.773561 100.429257 -64.136200 113.371735 0.000000 0.000000 0.000000 8.621637 0.060787 4.181864 1.552209 9.763873 -4.617557 -41.285123 7.239933 41.132734 107.905384 53.093550 -127.960944 0.000000 0.000000 0.000000 
-3.225854 78.945641 80.334831 0.000000 0.000000 0.000000 33.085225 13.639141 -8.327846 -4.971693 8.173282 5.787462 21.263359 21.341018 1.637606 -20.985869 0.869357 -28.590730 0.000000 0.000000 0.000000 33.085225 13.639141 -8.327846 -83.013272 -12.103419 -1.690230 75.602899 -31.767080 -1.870635 -15.228694 -0.245601 -0.656095 0.000000 0.000000 0.000000 33.085225 13.639141 -8.327846 0.000002 0.000001 -0.000000 4.228007 0.169421 3.045920 8.456742 0.049888 4.168281 0.000000 0.000000 0.000000 8.456730 0.049888 4.168277 -1.495669 0.129049 -0.122512 0.000000 0.000000 0.000000 8.456730 0.049888 4.168277 3.700562 -20.916840 7.003155 -46.556414 -22.125477 -42.724951 99.354493 -64.436462 112.357206 0.000000 0.000000 0.000000 8.456730 0.049888 4.168277 1.562807 9.722049 -4.810984 -41.579272 7.494224 41.264004 107.227652 53.443754 -127.192561 0.000000 0.000000 0.000000 
-3.252566 78.784561 80.515030 0.000000 0.000000 0.000000 33.290574 13.595260 -8.372069 -5.289577 8.141331 5.949944 21.751279 21.319971 1.614800 -21.014981 0.837870 -28.847314 0.000000 0.000000 0.000000 33.290574 13.595260 -8.372069 -83.405544 -12.224232 -1.755226 76.071669 -31.625586 -1.865899 -15.327464 -0.242578 -0.708854 0.000000 0.000000 0.000000 33.290574 13.595260 -8.372069 -0.000001 0.000001 -0.000001 4.144689 0.165529 3.038315 8.290167 0.036902 4.147905 0.000000 0.000000 0.000000 8.290176 0.036900 4.147905 -1.502716 0.133942 -0.124627 0.000000 0.000000 0.000000 8.290176 0.036900 4.147905 3.759557 -21.006088 7.184550 -46.759075 -22.221665 -42.632132 98.253624 -64.735263 111.302140 0.000000 0.000000 0.000000 8.290176 0.036900 4.147905 1.575180 9.692625 -5.006975 -41.870190 7.745234 41.399272 106.508706 53.802028 -126.378280 0.000000 0.000000 0.000000 
-3.281141 78.616501 80.700409 0.000000 0.000000 0.000000 33.497017 13.541373 -8.419979 -5.598949 8.108719 6.117832 22.236972 21.295200 1.591762 -21.056768 0.812320 -29.103836 0.000000 0.000000 0.000000 33.497017 13.541373 -8.419979 -83.805144 -12.353399 -1.812545 76.549311 -31.480800 -1.861435 -15.424512 -0.236838 -0.772535 0.000000 0.000000 0.000000 33.497017 13.541373 -8.419979 -0.000004 0.000000 -0.000001 4.059497 0.160685 3.027984 8.119900 0.022532 4.122999 0.000000 0.000000 0.000000 8.119891 0.022529 4.122999 -1.507084 0.139358 -0.127669 0.000000 0.000000 0.000000 8.119891 0.022529 4.122999 3.816726 -21.095067 7.355333 -46.951957 -22.334565 -42.484688 97.126444 -65.036481 110.196216 0.000000 0.000000 0.000000 8.119891 0.022529 4.122999 1.589186 9.675213 -5.205950 -42.155419 7.989160 41.531088 105.751320 54.166259 -125.522621 0.000000 0.000000 0.000000 
-3.310849 78.440933 80.891228 0.000000 0.000000 0.000000 33.708876 13.483497 -8.473433 -5.904481 8.075073 6.292207 22.720016 21.266371 1.568586 -21.109084 0.793337 -29.362990 0.000000 0.000000 0.000000 33.708876 13.483497 -8.473433 -84.217066 -12.493525 -1.865280 77.038107 -31.343134 -1.858062 -15.522209 -0.227515 -0.851171 0.000000 0.000000 0.000000 33.708876 13.483497 -8.473433 -0.000001 0.000000 -0.000001 3.971274 0.155241 3.016162 7.943571 0.007497 4.096009 0.000000 0.000000 0.000000 7.943571 0.007500 4.096012 -1.508612 0.144924 -0.131483 0.000000 0.000000 0.000000 7.943571 0.007500 4.096012 3.871925 -21.183820 7.514303 -47.134329 -22.468529 -42.283580 95.973461 -65.342111 109.033820 0.000000 0.000000 0.000000 7.943571 0.007500 4.096012 1.604652 9.667603 -5.407225 -42.432605 8.221193 41.655247 104.962413 54.532463 -124.636308 0.000000 0.000000 0.000000 
-3.340487 78.258041 81.087845 0.000000 0.000000 0.000000 33.930440 13.427967 -8.532804 -6.210371 8.039901 6.472423 23.197605 21.233632 1.545547 -21.164793 0.779951 -29.627110 0.000000 0.000000 0.000000 33.930440 13.427967 -8.532804 -84.647771 -12.644042 -1.919631 77.541403 -31.217636 -1.856056 -15.619183 -0.213943 -0.947152 0.000000 0.000000 0.000000 33.930440 13.427967 -8.532804 -0.000001 -0.000001 -0.000000 3.878986 0.149506 3.003809 7.759065 -0.007660 4.068836 0.000000 0.000000 0.000000 7.759086 -0.007656 4.068835 -1.507419 0.150208 -0.135654 0.000000 0.000000 0.000000 7.759086 -0.007656 4.068835 3.925314 -21.272426 7.662587 -47.305590 -22.623113 -42.040149 94.800123 -65.650918 107.819775 0.000000 0.000000 0.000000 7.759086 -0.007656 4.068835 1.621061 9.666504 -5.608420 -42.699744 8.436528 41.772153 104.152954 54.894586 -123.735229 0.000000 0.000000 0.000000 
-3.368720 78.068466 81.290802 0.000000 0.000000 0.000000 34.164832 13.379641 -8.597040 -6.518850 8.002859 6.656595 23.664895 21.197564 1.523067 -21.213335 0.770475 -29.898614 0.000000 0.000000 0.000000 34.164832 13.379641 -8.597040 -85.104137 -12.801578 -1.982814 78.063434 -31.103298 -1.855202 -15.709474 -0.195862 -1.060598 0.000000 0.000000 0.000000 34.164832 13.379641 -8.597040 0.000001 -0.000001 0.000000 3.782070 0.143715 2.991479 7.565260 -0.022609 4.042444 0.000000 0.000000 0.000000 7.565258 -0.022613 4.042446 -1.503688 0.154765 -0.139593 0.000000 0.000000 0.000000 7.565258 -0.022613 4.042446 3.977504 -21.360889 7.803215 -47.465146 -22.793122 -41.772662 93.617762 -65.958167 106.570636 0.000000 0.000000 0.000000 7.565258 -0.022613 4.042446 1.637662 9.668794 -5.805203 -42.955449 8.631215 41.885671 103.336917 55.245288 -122.838903 0.000000 0.000000 0.000000 
-3.394376 77.873169 81.500900 0.000000 0.000000 0.000000 34.413423 13.340947 -8.664444 -6.830617 7.963665 6.842710 24.118031 21.159018 1.501359 -21.244854 0.762715 -30.178877 0.000000 0.000000 0.000000 34.413423 13.340947 -8.664444 -85.592236 -12.959939 -2.062254 78.607814 -30.992697 -1.854827 -15.781055 -0.173937 -1.187509 0.000000 0.000000 0.000000 34.413423 13.340947 -8.664444 0.000002 -0.000001 0.000000 3.680396 0.137986 2.979328 7.362036 -0.037185 4.016983 0.000000 0.000000 0.000000 7.362031 -0.037190 4.016989 -1.497629 0.158126 -0.142663 0.000000 0.000000 0.000000 7.362031 -0.037190 4.016989 4.029336 -21.449217 7.939963 -47.612344 -22.969952 -41.501722 92.443113 -66.256400 105.312856 0.000000 0.000000 0.000000 7.362031 -0.037190 4.016989 1.654013 9.672769 -5.992069 -43.199167 8.802937 42.000404 102.529595 55.577403 -121.967535 0.000000 0.000000 0.000000 
